<?xml version="1.0" encoding="UTF-8" standalone="no"?>
<!-- Created with Inkscape (http://www.inkscape.org/) -->

<svg
   width="16"
   height="16"
   viewBox="0 0 16 16"
   version="1.1"
   id="svg5"
   sodipodi:docname="heavy_attack.svg"
   inkscape:version="1.2.2 (732a01da63, 2022-12-09)"
   xmlns:inkscape="http://www.inkscape.org/namespaces/inkscape"
   xmlns:sodipodi="http://sodipodi.sourceforge.net/DTD/sodipodi-0.dtd"
   xmlns="http://www.w3.org/2000/svg"
   xmlns:svg="http://www.w3.org/2000/svg">
  <sodipodi:namedview
     id="namedview7"
     pagecolor="#000000"
     bordercolor="#000000"
     borderopacity="0.25"
     inkscape:showpageshadow="2"
     inkscape:pageopacity="0"
     inkscape:pagecheckerboard="0"
     inkscape:deskcolor="#d1d1d1"
     inkscape:document-units="mm"
     showgrid="false"
     inkscape:zoom="45.254834"
     inkscape:cx="7.7008348"
     inkscape:cy="8.5957668"
     inkscape:window-width="1920"
     inkscape:window-height="1017"
     inkscape:window-x="-8"
     inkscape:window-y="-8"
     inkscape:window-maximized="1"
     inkscape:current-layer="layer1"
     showguides="true"
     inkscape:lockguides="false" />
  <defs
     id="defs2">
    <inkscape:path-effect
       effect="copy_rotate"
       starting_point="0,0"
       origin="8,8"
       id="path-effect5611"
       is_visible="true"
       lpeversion="1.2"
       lpesatellites=""
       method="normal"
       num_copies="8"
       starting_angle="22.5"
       rotation_angle="45"
       gap="0"
       copies_to_360="true"
       mirror_copies="false"
       split_items="false"
       link_styles="false" />
    <inkscape:path-effect
       effect="mirror_symmetry"
       start_point="8.8,0.1"
       end_point="8.8,1.9"
       center_point="8.8,1"
       id="path-effect5609"
       is_visible="true"
       lpeversion="1.2"
       lpesatellites=""
       mode="vertical"
       discard_orig_path="false"
       fuse_paths="false"
       oposite_fuse="false"
       split_items="false"
       split_open="false"
       link_styles="false" />
  </defs>
  <g
     inkscape:label="Layer 1"
     inkscape:groupmode="layer"
     id="layer1">
    <path
       style="fill:none;fill-opacity:1;stroke:#ff8800;stroke-width:2.691;stroke-linecap:round;stroke-linejoin:round;stroke-dasharray:none;stroke-opacity:1;paint-order:stroke fill markers"
       id="path842"
       sodipodi:type="arc"
       sodipodi:cx="8.0000095"
       sodipodi:cy="7.9999623"
       sodipodi:rx="4.6545496"
       sodipodi:ry="4.6545496"
       sodipodi:start="0"
       sodipodi:end="6.0992507"
       sodipodi:open="true"
       sodipodi:arc-type="chord"
       d="M 12.654559,7.9999623 A 4.6545496,4.6545496 0 0 1 8.2139673,12.649592 4.6545496,4.6545496 0 0 1 3.3651301,8.4274255 4.6545496,4.6545496 0 0 1 7.3599446,3.3896317 4.6545496,4.6545496 0 0 1 12.576045,7.1486489 Z" />
    <path
       style="fill:#ff8800;fill-opacity:1;stroke-width:1;stroke-linecap:round;stroke-linejoin:miter;paint-order:stroke fill markers;stroke:#ff8800;stroke-opacity:1;stroke-dasharray:none"
       d="M 5.7038994,2.4567228 6.6902895,2.1446898 4.9768009,0.70135169 Z m 0,0 L 4.7857756,2.9335652 4.9768009,0.70135169 Z M 2.4567228,5.7038994 2.9335652,4.7857756 0.70135169,4.9768009 Z m 0,0 -0.312033,0.9863901 -1.44333811,-1.7134886 z m 0,4.5922016 -0.312033,-0.9863905 -1.44333811,1.7134885 z m 0,0 0.4768424,0.918123 -2.23221351,-0.191025 z m 3.2471766,3.247176 -0.9181238,-0.476842 0.1910253,2.232213 z m 0,0 0.9863901,0.312033 -1.7134886,1.443338 z m 4.5922016,0 -0.9863905,0.312033 1.7134885,1.443338 z m 0,0 0.918123,-0.476842 -0.191025,2.232213 z m 3.247176,-3.247176 -0.476842,0.918123 2.232213,-0.191025 z m 0,0 0.312033,-0.9863905 1.443338,1.7134885 z m 0,-4.5922016 0.312033,0.9863901 1.443338,-1.7134886 z m 0,0 -0.476842,-0.9181238 2.232213,0.1910253 z M 10.296101,2.4567228 11.214224,2.9335652 11.023199,0.70135169 Z m 0,0 -0.9863905,-0.312033 1.7134885,-1.44333811 z"
       id="path5607"
       inkscape:path-effect="#path-effect5609;#path-effect5611"
       inkscape:original-d="M 8,2 9.0307155,2.0891942 8,0.1 Z"
       class="UnoptimicedTransforms"
       sodipodi:nodetypes="cccc" />
  </g>
</svg>
